<svg width="684" height="254" viewBox="0 0 684 254" fill="none" xmlns="http://www.w3.org/2000/svg">
<path d="M108.114 213.677L118.505 198.244V227.154H97.7143V198.318L108.114 213.677Z" fill="#3F4247"/>
<path d="M141.374 54.7236V227.154H120.584V35.1057L141.374 54.7236Z" fill="#3F4247"/>
<path d="M164.243 74.3415V227.154H143.453V93.9592L164.243 74.3415Z" fill="#3F4247"/>
<path d="M164.243 74.3415V94.9919L143.453 114.61V93.9593L164.243 74.3415Z" fill="#D93B32"/>
<path d="M141.374 54.7236V75.374L120.584 55.7561V35.1057L141.374 54.7236Z" fill="#D93B32"/>
<path d="M74.845 54.7236V227.155H95.6353V35.1057L74.845 54.7236Z" fill="#3F4247"/>
<path d="M51.9757 74.3415V227.154H72.766V93.9593L51.9757 74.3415Z" fill="#3F4247"/>
<path d="M51.9757 74.3415V94.9919L72.766 114.61V93.9593L51.9757 74.3415Z" fill="#D93B32"/>
<path d="M74.845 54.7236V75.374L95.6353 55.7561V35.1057L74.845 54.7236Z" fill="#D93B32"/>
<path d="M118.505 20.6504V190.711L108.114 206.504L97.7143 190.787V20.6504H118.505Z" fill="#D93B32"/>
<path d="M195.429 237.48H20.7903V239.545H195.429V237.48Z" fill="#D93B32"/>
<path d="M174.638 229.22H41.5806V233.35H174.638V229.22Z" fill="#3F4247"/>
<path d="M247.753 87.4091V94.9919H219.711V60.2992H247.105V67.882H229.491V73.7302H245.009V81.0653H229.491V87.4091H247.753Z" fill="#3F4247"/>
<path d="M273.797 94.9919L268.957 87.9542L263.767 94.9919H253.489L263.767 81.5609L253.788 68.1299H264.466L269.256 74.9197L274.246 68.1299H284.275L274.296 81.214L284.624 94.9919H273.797Z" fill="#3F4247"/>
<path d="M304.559 95.438C301.565 95.438 298.887 94.8432 296.525 93.6538C294.164 92.4643 292.317 90.8123 290.987 88.6977C289.69 86.5831 289.041 84.1876 289.041 81.5113C289.041 78.835 289.69 76.4561 290.987 74.3745C292.317 72.2599 294.164 70.6244 296.525 69.468C298.887 68.2785 301.565 67.6838 304.559 67.6838C307.619 67.6838 310.264 68.3446 312.492 69.6662C314.721 70.9548 316.301 72.7555 317.233 75.0684L309.898 78.7855C308.667 76.3735 306.871 75.1675 304.509 75.1675C302.812 75.1675 301.399 75.7292 300.268 76.8526C299.17 77.976 298.621 79.5289 298.621 81.5113C298.621 83.5268 299.17 85.1127 300.268 86.2692C301.399 87.3926 302.812 87.9542 304.509 87.9542C306.871 87.9542 308.667 86.7483 309.898 84.3363L317.233 88.0534C316.301 90.3662 314.721 92.1834 312.492 93.5051C310.264 94.7937 307.619 95.438 304.559 95.438Z" fill="#3F4247"/>
<path d="M352.144 81.6104C352.144 81.6765 352.094 82.453 351.994 83.9398H332.335C332.734 85.3275 333.499 86.4013 334.63 87.1613C335.795 87.8882 337.242 88.2516 338.971 88.2516C340.269 88.2516 341.383 88.0699 342.315 87.7064C343.279 87.343 344.244 86.7483 345.209 85.9222L350.198 91.0766C347.57 93.9842 343.728 95.438 338.672 95.438C335.512 95.438 332.734 94.8432 330.339 93.6538C327.944 92.4643 326.081 90.8123 324.751 88.6977C323.454 86.5831 322.805 84.1876 322.805 81.5113C322.805 78.8681 323.437 76.5057 324.701 74.4241C325.998 72.3095 327.778 70.6575 330.04 69.468C332.302 68.2785 334.847 67.6838 337.674 67.6838C340.369 67.6838 342.813 68.2455 345.009 69.3689C347.204 70.4592 348.934 72.0617 350.198 74.1763C351.496 76.2579 352.144 78.7359 352.144 81.6104ZM337.724 74.3745C336.26 74.3745 335.03 74.7875 334.032 75.6136C333.067 76.4396 332.452 77.563 332.186 78.9837H343.263C342.996 77.563 342.364 76.4396 341.367 75.6136C340.402 74.7875 339.188 74.3745 337.724 74.3745Z" fill="#3F4247"/>
<path d="M360.507 58.2177H369.987V94.9919H360.507V58.2177Z" fill="#3F4247"/>
<path d="M219.711 113.99H236.227C240.053 113.99 243.446 114.701 246.406 116.121C249.367 117.542 251.662 119.558 253.292 122.168C254.922 124.778 255.737 127.834 255.737 131.337C255.737 134.839 254.922 137.895 253.292 140.505C251.662 143.116 249.367 145.131 246.406 146.552C243.446 147.973 240.053 148.683 236.227 148.683H219.711V113.99ZM235.828 140.852C238.822 140.852 241.217 140.01 243.013 138.325C244.843 136.64 245.757 134.31 245.757 131.337C245.757 128.363 244.843 126.034 243.013 124.349C241.217 122.663 238.822 121.821 235.828 121.821H229.591V140.852H235.828Z" fill="#3F4247"/>
<path d="M292.12 135.301C292.12 135.368 292.07 136.144 291.97 137.631H272.311C272.71 139.019 273.475 140.092 274.606 140.852C275.771 141.579 277.218 141.943 278.947 141.943C280.245 141.943 281.359 141.761 282.29 141.397C283.255 141.034 284.22 140.439 285.184 139.613L290.174 144.768C287.546 147.675 283.704 149.129 278.648 149.129C275.488 149.129 272.71 148.534 270.315 147.345C267.92 146.155 266.057 144.503 264.727 142.389C263.429 140.274 262.781 137.879 262.781 135.202C262.781 132.559 263.413 130.197 264.677 128.115C265.974 126.001 267.754 124.349 270.016 123.159C272.278 121.97 274.823 121.375 277.65 121.375C280.344 121.375 282.789 121.937 284.985 123.06C287.18 124.15 288.91 125.753 290.174 127.867C291.471 129.949 292.12 132.427 292.12 135.301ZM277.7 128.066C276.236 128.066 275.006 128.479 274.008 129.305C273.043 130.131 272.428 131.254 272.161 132.675H283.238C282.972 131.254 282.34 130.131 281.342 129.305C280.378 128.479 279.164 128.066 277.7 128.066Z" fill="#3F4247"/>
<path d="M328.487 121.821L317.31 148.683H307.53L296.403 121.821H306.133L312.619 138.226L319.455 121.821H328.487Z" fill="#3F4247"/>
<path d="M361.841 135.301C361.841 135.368 361.791 136.144 361.691 137.631H342.032C342.431 139.019 343.196 140.092 344.327 140.852C345.491 141.579 346.938 141.943 348.668 141.943C349.965 141.943 351.08 141.761 352.011 141.397C352.976 141.034 353.941 140.439 354.905 139.613L359.895 144.768C357.267 147.675 353.425 149.129 348.369 149.129C345.209 149.129 342.431 148.534 340.036 147.345C337.641 146.155 335.778 144.503 334.448 142.389C333.15 140.274 332.502 137.879 332.502 135.202C332.502 132.559 333.134 130.197 334.398 128.115C335.695 126.001 337.475 124.349 339.737 123.159C341.999 121.97 344.543 121.375 347.371 121.375C350.065 121.375 352.51 121.937 354.706 123.06C356.901 124.15 358.631 125.753 359.895 127.867C361.192 129.949 361.841 132.427 361.841 135.301ZM347.421 128.066C345.957 128.066 344.726 128.479 343.728 129.305C342.764 130.131 342.148 131.254 341.882 132.675H352.959C352.693 131.254 352.061 130.131 351.063 129.305C350.099 128.479 348.884 128.066 347.421 128.066Z" fill="#3F4247"/>
<path d="M370.204 111.909H379.684V148.683H370.204V111.909Z" fill="#3F4247"/>
<path d="M403.409 149.129C400.515 149.129 397.903 148.534 395.575 147.345C393.246 146.155 391.417 144.503 390.086 142.389C388.789 140.274 388.14 137.879 388.14 135.202C388.14 132.559 388.789 130.18 390.086 128.066C391.417 125.951 393.23 124.315 395.525 123.159C397.854 121.97 400.481 121.375 403.409 121.375C406.336 121.375 408.964 121.97 411.292 123.159C413.621 124.315 415.434 125.951 416.731 128.066C418.028 130.147 418.677 132.526 418.677 135.202C418.677 137.879 418.028 140.274 416.731 142.389C415.434 144.503 413.621 146.155 411.292 147.345C408.964 148.534 406.336 149.129 403.409 149.129ZM403.409 141.645C405.072 141.645 406.436 141.084 407.5 139.96C408.565 138.804 409.097 137.218 409.097 135.202C409.097 133.22 408.565 131.667 407.5 130.544C406.436 129.42 405.072 128.859 403.409 128.859C401.745 128.859 400.382 129.42 399.317 130.544C398.253 131.667 397.72 133.22 397.72 135.202C397.72 137.218 398.253 138.804 399.317 139.96C400.382 141.084 401.745 141.645 403.409 141.645Z" fill="#3F4247"/>
<path d="M444.075 121.375C446.537 121.375 448.766 121.953 450.761 123.109C452.791 124.233 454.387 125.852 455.551 127.966C456.749 130.048 457.348 132.477 457.348 135.252C457.348 138.027 456.749 140.472 455.551 142.587C454.387 144.669 452.791 146.288 450.761 147.444C448.766 148.567 446.537 149.129 444.075 149.129C440.915 149.129 438.404 148.187 436.541 146.304V158.298H427.061V121.821H436.092V124.497C437.855 122.416 440.516 121.375 444.075 121.375ZM442.079 141.645C443.743 141.645 445.106 141.084 446.171 139.96C447.235 138.804 447.768 137.234 447.768 135.252C447.768 133.269 447.235 131.717 446.171 130.593C445.106 129.437 443.743 128.859 442.079 128.859C440.416 128.859 439.052 129.437 437.988 130.593C436.923 131.717 436.391 133.269 436.391 135.252C436.391 137.234 436.923 138.804 437.988 139.96C439.052 141.084 440.416 141.645 442.079 141.645Z" fill="#3F4247"/>
<path d="M500.973 121.375C504.3 121.375 506.944 122.366 508.907 124.349C510.902 126.331 511.9 129.321 511.9 133.319V148.683H502.42V134.855C502.42 132.972 502.054 131.584 501.322 130.692C500.624 129.8 499.626 129.354 498.329 129.354C496.898 129.354 495.751 129.85 494.886 130.841C494.021 131.832 493.588 133.336 493.588 135.351V148.683H484.108V134.855C484.108 131.188 482.744 129.354 480.016 129.354C478.553 129.354 477.389 129.85 476.524 130.841C475.659 131.832 475.226 133.336 475.226 135.351V148.683H465.746V121.821H474.777V124.646C475.775 123.556 476.956 122.746 478.32 122.217C479.717 121.656 481.231 121.375 482.861 121.375C484.757 121.375 486.453 121.722 487.95 122.416C489.447 123.109 490.661 124.167 491.592 125.588C492.657 124.233 494.004 123.192 495.634 122.465C497.264 121.738 499.044 121.375 500.973 121.375Z" fill="#3F4247"/>
<path d="M549.908 135.301C549.908 135.368 549.859 136.144 549.759 137.631H530.099C530.499 139.019 531.264 140.092 532.395 140.852C533.559 141.579 535.006 141.943 536.736 141.943C538.033 141.943 539.147 141.761 540.079 141.397C541.043 141.034 542.008 140.439 542.973 139.613L547.962 144.768C545.335 147.675 541.493 149.129 536.436 149.129C533.276 149.129 530.499 148.534 528.104 147.345C525.709 146.155 523.846 144.503 522.515 142.389C521.218 140.274 520.569 137.879 520.569 135.202C520.569 132.559 521.201 130.197 522.465 128.115C523.763 126.001 525.542 124.349 527.804 123.159C530.066 121.97 532.611 121.375 535.438 121.375C538.133 121.375 540.578 121.937 542.773 123.06C544.969 124.15 546.698 125.753 547.962 127.867C549.26 129.949 549.908 132.427 549.908 135.301ZM535.488 128.066C534.025 128.066 532.794 128.479 531.796 129.305C530.831 130.131 530.216 131.254 529.95 132.675H541.027C540.761 131.254 540.129 130.131 539.131 129.305C538.166 128.479 536.952 128.066 535.488 128.066Z" fill="#3F4247"/>
<path d="M575.885 121.375C579.244 121.375 581.939 122.366 583.968 124.349C586.03 126.331 587.062 129.321 587.062 133.319V148.683H577.581V134.855C577.581 131.188 576.101 129.354 573.14 129.354C571.51 129.354 570.197 129.883 569.199 130.94C568.234 131.997 567.752 133.583 567.752 135.698V148.683H558.271V121.821H567.302V124.745C568.367 123.655 569.631 122.829 571.095 122.267C572.558 121.672 574.155 121.375 575.885 121.375Z" fill="#3F4247"/>
<path d="M615.667 147.593C614.868 148.088 613.887 148.468 612.723 148.733C611.592 148.997 610.378 149.129 609.08 149.129C605.554 149.129 602.843 148.27 600.947 146.552C599.051 144.834 598.103 142.273 598.103 138.87V129.85H594.161V122.812H598.103V115.824H607.583V122.812H613.771V129.85H607.583V138.771C607.583 139.729 607.833 140.489 608.332 141.051C608.864 141.579 609.563 141.844 610.428 141.844C611.525 141.844 612.49 141.563 613.322 141.001L615.667 147.593Z" fill="#3F4247"/>
<path d="M243.113 184.284H251.845V198.657C249.849 200.078 247.554 201.168 244.959 201.928C242.365 202.688 239.77 203.068 237.175 203.068C233.516 203.068 230.223 202.308 227.296 200.788C224.368 199.235 222.073 197.088 220.41 194.345C218.747 191.603 217.915 188.497 217.915 185.028C217.915 181.558 218.747 178.453 220.41 175.71C222.073 172.968 224.385 170.837 227.346 169.317C230.306 167.764 233.649 166.987 237.375 166.987C240.635 166.987 243.562 167.533 246.157 168.623C248.751 169.713 250.913 171.283 252.643 173.331L246.356 178.981C243.994 176.404 241.167 175.115 237.874 175.115C234.88 175.115 232.468 176.024 230.639 177.841C228.809 179.626 227.894 182.021 227.894 185.028C227.894 186.944 228.31 188.662 229.142 190.182C229.974 191.669 231.138 192.842 232.635 193.701C234.132 194.527 235.845 194.94 237.774 194.94C239.67 194.94 241.45 194.56 243.113 193.8V184.284Z" fill="#3F4247"/>
<path d="M270.682 178.733C271.647 177.511 272.895 176.602 274.425 176.008C275.988 175.38 277.768 175.066 279.764 175.066V183.541C278.899 183.442 278.184 183.392 277.618 183.392C275.589 183.392 273.992 183.937 272.828 185.028C271.697 186.118 271.132 187.787 271.132 190.033V202.374H261.651V175.512H270.682V178.733Z" fill="#3F4247"/>
<path d="M300.996 202.82C298.102 202.82 295.491 202.225 293.162 201.036C290.834 199.846 289.004 198.194 287.673 196.08C286.376 193.965 285.727 191.57 285.727 188.893C285.727 186.25 286.376 183.871 287.673 181.757C289.004 179.642 290.817 178.007 293.112 176.85C295.441 175.661 298.069 175.066 300.996 175.066C303.923 175.066 306.551 175.661 308.879 176.85C311.208 178.007 313.021 179.642 314.318 181.757C315.616 183.838 316.264 186.217 316.264 188.893C316.264 191.57 315.616 193.965 314.318 196.08C313.021 198.194 311.208 199.846 308.879 201.036C306.551 202.225 303.923 202.82 300.996 202.82ZM300.996 195.336C302.659 195.336 304.023 194.775 305.087 193.651C306.152 192.495 306.684 190.909 306.684 188.893C306.684 186.911 306.152 185.358 305.087 184.235C304.023 183.111 302.659 182.55 300.996 182.55C299.333 182.55 297.969 183.111 296.904 184.235C295.84 185.358 295.308 186.911 295.308 188.893C295.308 190.909 295.84 192.495 296.904 193.651C297.969 194.775 299.333 195.336 300.996 195.336Z" fill="#3F4247"/>
<path d="M353.089 175.512V202.374H344.057V199.499C343.059 200.59 341.862 201.416 340.465 201.978C339.068 202.539 337.587 202.82 336.024 202.82C332.531 202.82 329.737 201.796 327.641 199.747C325.579 197.699 324.548 194.626 324.548 190.529V175.512H334.028V188.993C334.028 191.008 334.411 192.478 335.176 193.403C335.941 194.329 337.055 194.791 338.519 194.791C340.016 194.791 341.23 194.279 342.161 193.255C343.126 192.197 343.608 190.595 343.608 188.447V175.512H353.089Z" fill="#3F4247"/>
<path d="M380.202 175.066C382.663 175.066 384.892 175.644 386.888 176.801C388.917 177.924 390.514 179.543 391.678 181.658C392.875 183.739 393.474 186.168 393.474 188.943C393.474 191.718 392.875 194.163 391.678 196.278C390.514 198.36 388.917 199.979 386.888 201.135C384.892 202.258 382.663 202.82 380.202 202.82C377.042 202.82 374.53 201.878 372.667 199.995V211.989H363.187V175.512H372.218V178.188C373.981 176.107 376.642 175.066 380.202 175.066ZM378.206 195.336C379.869 195.336 381.233 194.775 382.297 193.651C383.362 192.495 383.894 190.925 383.894 188.943C383.894 186.961 383.362 185.408 382.297 184.284C381.233 183.128 379.869 182.55 378.206 182.55C376.543 182.55 375.179 183.128 374.114 184.284C373.05 185.408 372.518 186.961 372.518 188.943C372.518 190.925 373.05 192.495 374.114 193.651C375.179 194.775 376.543 195.336 378.206 195.336Z" fill="#3F4247"/>
</svg>
