<svg width="220" height="82" viewBox="0 0 220 82" fill="none" xmlns="http://www.w3.org/2000/svg">
<path d="M34.7736 68.9824L38.1155 64V73.3333H31.4286V64.0239L34.7736 68.9824Z" fill="white"/>
<path d="M45.4711 17.6663V73.333H38.7842V11.333L45.4711 17.6663Z" fill="white"/>
<path d="M52.8267 24V73.3333H46.1398V30.3333L52.8267 24Z" fill="white"/>
<path d="M52.8267 24V30.6667L46.1398 37V30.3333L52.8267 24Z" fill="#D93B32"/>
<path d="M45.4711 17.6663V24.333L38.7842 17.9997V11.333L45.4711 17.6663Z" fill="#D93B32"/>
<path d="M24.0729 17.6664V73.333H30.7599V11.333L24.0729 17.6664Z" fill="white"/>
<path d="M16.7173 24V73.3333H23.4042V30.3333L16.7173 24Z" fill="white"/>
<path d="M16.7173 24V30.6667L23.4042 37V30.3333L16.7173 24Z" fill="#D93B32"/>
<path d="M24.0729 17.6663V24.333L30.7599 17.9997V11.333L24.0729 17.6663Z" fill="#D93B32"/>
<path d="M38.1155 6.6665V61.5681L34.7736 66.6665L31.4286 61.5925V6.6665H38.1155Z" fill="#D93B32"/>
<path d="M62.8571 76.6665H6.68692V77.3332H62.8571V76.6665Z" fill="#D93B32"/>
<path d="M56.1702 74H13.3738V75.3333H56.1702V74Z" fill="white"/>
<path d="M79.6867 28.2189V30.6669H70.6674V19.4669H79.4781V21.9149H73.8129V23.8029H78.8041V26.1709H73.8129V28.2189H79.6867Z" fill="white"/>
<path d="M88.0633 30.6669L86.5065 28.3949L84.8375 30.6669H81.5315L84.8375 26.3309L81.6278 21.9949H85.0622L86.6028 24.1869L88.2077 21.9949H91.4335L88.2237 26.2189L91.5458 30.6669H88.0633Z" fill="white"/>
<path d="M97.9575 30.8109C96.9946 30.8109 96.1333 30.6189 95.3737 30.2349C94.614 29.8509 94.0202 29.3176 93.5923 28.6349C93.175 27.9523 92.9664 27.1789 92.9664 26.3149C92.9664 25.4509 93.175 24.6829 93.5923 24.0109C94.0202 23.3283 94.614 22.8003 95.3737 22.4269C96.1333 22.0429 96.9946 21.8509 97.9575 21.8509C98.9418 21.8509 99.7924 22.0643 100.509 22.4909C101.226 22.9069 101.734 23.4883 102.034 24.2349L99.6747 25.4349C99.2788 24.6563 98.7011 24.2669 97.9414 24.2669C97.3958 24.2669 96.9411 24.4483 96.5773 24.8109C96.2242 25.1736 96.0477 25.6749 96.0477 26.3149C96.0477 26.9656 96.2242 27.4776 96.5773 27.8509C96.9411 28.2136 97.3958 28.3949 97.9414 28.3949C98.7011 28.3949 99.2788 28.0056 99.6747 27.2269L102.034 28.4269C101.734 29.1736 101.226 29.7603 100.509 30.1869C99.7924 30.6029 98.9418 30.8109 97.9575 30.8109Z" fill="white"/>
<path d="M113.263 26.3469C113.263 26.3683 113.247 26.6189 113.215 27.0989H106.891C107.02 27.5469 107.266 27.8936 107.63 28.1389C108.004 28.3736 108.47 28.4909 109.026 28.4909C109.443 28.4909 109.802 28.4323 110.101 28.3149C110.411 28.1976 110.722 28.0056 111.032 27.7389L112.637 29.4029C111.792 30.3416 110.556 30.8109 108.93 30.8109C107.913 30.8109 107.02 30.6189 106.249 30.2349C105.479 29.8509 104.88 29.3176 104.452 28.6349C104.035 27.9523 103.826 27.1789 103.826 26.3149C103.826 25.4616 104.029 24.6989 104.436 24.0269C104.853 23.3443 105.426 22.8109 106.153 22.4269C106.881 22.0429 107.699 21.8509 108.609 21.8509C109.475 21.8509 110.262 22.0323 110.968 22.3949C111.674 22.7469 112.23 23.2643 112.637 23.9469C113.054 24.6189 113.263 25.4189 113.263 26.3469ZM108.625 24.0109C108.154 24.0109 107.758 24.1443 107.437 24.4109C107.127 24.6776 106.929 25.0403 106.843 25.4989H110.406C110.32 25.0403 110.117 24.6776 109.796 24.4109C109.486 24.1443 109.095 24.0109 108.625 24.0109Z" fill="white"/>
<path d="M115.953 18.7949H119.002V30.6669H115.953V18.7949Z" fill="white"/>
<path d="M70.6674 36.8003H75.9795C77.2099 36.8003 78.3012 37.0296 79.2534 37.4883C80.2056 37.9469 80.9439 38.5976 81.4681 39.4403C81.9924 40.2829 82.2545 41.2696 82.2545 42.4003C82.2545 43.5309 81.9924 44.5176 81.4681 45.3603C80.9439 46.2029 80.2056 46.8536 79.2534 47.3123C78.3012 47.7709 77.2099 48.0003 75.9795 48.0003H70.6674V36.8003ZM75.8511 45.4723C76.814 45.4723 77.5844 45.2003 78.1621 44.6563C78.7506 44.1123 79.0448 43.3603 79.0448 42.4003C79.0448 41.4403 78.7506 40.6883 78.1621 40.1443C77.5844 39.6003 76.814 39.3283 75.8511 39.3283H73.845V45.4723H75.8511Z" fill="white"/>
<path d="M93.9567 43.6803C93.9567 43.7016 93.9407 43.9523 93.9086 44.4323H87.5854C87.7138 44.8803 87.9599 45.2269 88.3237 45.4723C88.6981 45.7069 89.1635 45.8243 89.7199 45.8243C90.1372 45.8243 90.4956 45.7656 90.7952 45.6483C91.1054 45.5309 91.4157 45.3389 91.726 45.0723L93.3308 46.7363C92.4856 47.6749 91.2499 48.1443 89.6236 48.1443C88.6072 48.1443 87.7138 47.9523 86.9435 47.5683C86.1731 47.1843 85.574 46.6509 85.146 45.9683C84.7288 45.2856 84.5201 44.5123 84.5201 43.6483C84.5201 42.7949 84.7234 42.0323 85.13 41.3603C85.5473 40.6776 86.1197 40.1443 86.8472 39.7603C87.5747 39.3763 88.3932 39.1843 89.3026 39.1843C90.1693 39.1843 90.9556 39.3656 91.6618 39.7283C92.3679 40.0803 92.9243 40.5976 93.3308 41.2803C93.7481 41.9523 93.9567 42.7523 93.9567 43.6803ZM89.3187 41.3443C88.8479 41.3443 88.4521 41.4776 88.1311 41.7443C87.8208 42.0109 87.6229 42.3736 87.5373 42.8323H91.1001C91.0145 42.3736 90.8112 42.0109 90.4902 41.7443C90.18 41.4776 89.7894 41.3443 89.3187 41.3443Z" fill="white"/>
<path d="M105.654 39.3283L102.059 48.0003H98.9131L95.3343 39.3283H98.4638L100.55 44.6243L102.749 39.3283H105.654Z" fill="white"/>
<path d="M116.382 43.6803C116.382 43.7016 116.366 43.9523 116.333 44.4323H110.01C110.139 44.8803 110.385 45.2269 110.748 45.4723C111.123 45.7069 111.588 45.8243 112.145 45.8243C112.562 45.8243 112.92 45.7656 113.22 45.6483C113.53 45.5309 113.841 45.3389 114.151 45.0723L115.756 46.7363C114.91 47.6749 113.675 48.1443 112.048 48.1443C111.032 48.1443 110.139 47.9523 109.368 47.5683C108.598 47.1843 107.999 46.6509 107.571 45.9683C107.154 45.2856 106.945 44.5123 106.945 43.6483C106.945 42.7949 107.148 42.0323 107.555 41.3603C107.972 40.6776 108.544 40.1443 109.272 39.7603C110 39.3763 110.818 39.1843 111.727 39.1843C112.594 39.1843 113.38 39.3656 114.087 39.7283C114.793 40.0803 115.349 40.5976 115.756 41.2803C116.173 41.9523 116.382 42.7523 116.382 43.6803ZM111.744 41.3443C111.273 41.3443 110.877 41.4776 110.556 41.7443C110.246 42.0109 110.048 42.3736 109.962 42.8323H113.525C113.439 42.3736 113.236 42.0109 112.915 41.7443C112.605 41.4776 112.214 41.3443 111.744 41.3443Z" fill="white"/>
<path d="M119.071 36.1283H122.121V48.0003H119.071V36.1283Z" fill="white"/>
<path d="M129.751 48.1443C128.821 48.1443 127.981 47.9523 127.232 47.5683C126.483 47.1843 125.894 46.6509 125.466 45.9683C125.049 45.2856 124.84 44.5123 124.84 43.6483C124.84 42.7949 125.049 42.0269 125.466 41.3443C125.894 40.6616 126.477 40.1336 127.216 39.7603C127.965 39.3763 128.81 39.1843 129.751 39.1843C130.693 39.1843 131.538 39.3763 132.287 39.7603C133.036 40.1336 133.619 40.6616 134.036 41.3443C134.454 42.0163 134.662 42.7843 134.662 43.6483C134.662 44.5123 134.454 45.2856 134.036 45.9683C133.619 46.6509 133.036 47.1843 132.287 47.5683C131.538 47.9523 130.693 48.1443 129.751 48.1443ZM129.751 45.7283C130.286 45.7283 130.725 45.5469 131.067 45.1843C131.41 44.8109 131.581 44.2989 131.581 43.6483C131.581 43.0083 131.41 42.5069 131.067 42.1443C130.725 41.7816 130.286 41.6003 129.751 41.6003C129.216 41.6003 128.778 41.7816 128.435 42.1443C128.093 42.5069 127.922 43.0083 127.922 43.6483C127.922 44.2989 128.093 44.8109 128.435 45.1843C128.778 45.5469 129.216 45.7283 129.751 45.7283Z" fill="white"/>
<path d="M142.831 39.1843C143.623 39.1843 144.34 39.3709 144.982 39.7443C145.634 40.1069 146.148 40.6296 146.522 41.3123C146.908 41.9843 147.1 42.7683 147.1 43.6643C147.1 44.5603 146.908 45.3496 146.522 46.0323C146.148 46.7043 145.634 47.2269 144.982 47.6003C144.34 47.9629 143.623 48.1443 142.831 48.1443C141.815 48.1443 141.007 47.8403 140.408 47.2323V51.1043H137.359V39.3283H140.263V40.1923C140.83 39.5203 141.686 39.1843 142.831 39.1843ZM142.189 45.7283C142.724 45.7283 143.163 45.5469 143.505 45.1843C143.848 44.8109 144.019 44.3043 144.019 43.6643C144.019 43.0243 143.848 42.5229 143.505 42.1603C143.163 41.7869 142.724 41.6003 142.189 41.6003C141.654 41.6003 141.216 41.7869 140.873 42.1603C140.531 42.5229 140.36 43.0243 140.36 43.6643C140.36 44.3043 140.531 44.8109 140.873 45.1843C141.216 45.5469 141.654 45.7283 142.189 45.7283Z" fill="white"/>
<path d="M161.132 39.1843C162.202 39.1843 163.052 39.5043 163.683 40.1443C164.325 40.7843 164.646 41.7496 164.646 43.0403V48.0003H161.597V43.5363C161.597 42.9283 161.479 42.4803 161.244 42.1923C161.019 41.9043 160.698 41.7603 160.281 41.7603C159.821 41.7603 159.452 41.9203 159.174 42.2403C158.896 42.5603 158.756 43.0456 158.756 43.6963V48.0003H155.707V43.5363C155.707 42.3523 155.269 41.7603 154.391 41.7603C153.92 41.7603 153.546 41.9203 153.268 42.2403C152.99 42.5603 152.851 43.0456 152.851 43.6963V48.0003H149.801V39.3283H152.706V40.2403C153.027 39.8883 153.407 39.6269 153.846 39.4563C154.295 39.2749 154.782 39.1843 155.306 39.1843C155.916 39.1843 156.462 39.2963 156.943 39.5203C157.424 39.7443 157.815 40.0856 158.115 40.5443C158.457 40.1069 158.89 39.7709 159.414 39.5363C159.939 39.3016 160.511 39.1843 161.132 39.1843Z" fill="white"/>
<path d="M176.871 43.6803C176.871 43.7016 176.855 43.9523 176.823 44.4323H170.5C170.628 44.8803 170.874 45.2269 171.238 45.4723C171.613 45.7069 172.078 45.8243 172.634 45.8243C173.052 45.8243 173.41 45.7656 173.71 45.6483C174.02 45.5309 174.33 45.3389 174.64 45.0723L176.245 46.7363C175.4 47.6749 174.164 48.1443 172.538 48.1443C171.522 48.1443 170.628 47.9523 169.858 47.5683C169.088 47.1843 168.488 46.6509 168.06 45.9683C167.643 45.2856 167.435 44.5123 167.435 43.6483C167.435 42.7949 167.638 42.0323 168.044 41.3603C168.462 40.6776 169.034 40.1443 169.762 39.7603C170.489 39.3763 171.308 39.1843 172.217 39.1843C173.084 39.1843 173.87 39.3656 174.576 39.7283C175.282 40.0803 175.839 40.5976 176.245 41.2803C176.662 41.9523 176.871 42.7523 176.871 43.6803ZM172.233 41.3443C171.762 41.3443 171.366 41.4776 171.045 41.7443C170.735 42.0109 170.537 42.3736 170.452 42.8323H174.014C173.929 42.3736 173.726 42.0109 173.405 41.7443C173.094 41.4776 172.704 41.3443 172.233 41.3443Z" fill="white"/>
<path d="M185.226 39.1843C186.307 39.1843 187.173 39.5043 187.826 40.1443C188.489 40.7843 188.821 41.7496 188.821 43.0403V48.0003H185.772V43.5363C185.772 42.3523 185.296 41.7603 184.343 41.7603C183.819 41.7603 183.397 41.9309 183.076 42.2723C182.765 42.6136 182.61 43.1256 182.61 43.8083V48.0003H179.561V39.3283H182.466V40.2723C182.808 39.9203 183.215 39.6536 183.685 39.4723C184.156 39.2803 184.67 39.1843 185.226 39.1843Z" fill="white"/>
<path d="M198.021 47.6483C197.765 47.8083 197.449 47.9309 197.075 48.0163C196.711 48.1016 196.32 48.1443 195.903 48.1443C194.769 48.1443 193.897 47.8669 193.287 47.3123C192.677 46.7576 192.372 45.9309 192.372 44.8323V41.9203H191.104V39.6483H192.372V37.3923H195.422V39.6483H197.412V41.9203H195.422V44.8003C195.422 45.1096 195.502 45.3549 195.662 45.5363C195.833 45.7069 196.058 45.7923 196.336 45.7923C196.689 45.7923 197 45.7016 197.267 45.5203L198.021 47.6483Z" fill="white"/>
<path d="M78.1942 59.4936H81.0027V64.1336C80.3608 64.5923 79.6225 64.9442 78.788 65.1896C77.9535 65.4349 77.119 65.5576 76.2844 65.5576C75.1075 65.5576 74.0483 65.3123 73.1068 64.8216C72.1653 64.3203 71.427 63.6269 70.8921 62.7416C70.3571 61.8563 70.0897 60.8536 70.0897 59.7336C70.0897 58.6136 70.3571 57.6109 70.8921 56.7256C71.427 55.8403 72.1706 55.1523 73.1229 54.6616C74.0751 54.1603 75.1503 53.9096 76.3486 53.9096C77.3971 53.9096 78.3387 54.0856 79.1732 54.4376C80.0077 54.7896 80.7032 55.2963 81.2595 55.9576L79.2374 57.7816C78.4777 56.9496 77.5683 56.5336 76.5091 56.5336C75.5462 56.5336 74.7705 56.8269 74.1821 57.4136C73.5936 57.9896 73.2994 58.7629 73.2994 59.7336C73.2994 60.3523 73.4331 60.9069 73.7006 61.3976C73.9681 61.8776 74.3425 62.2563 74.824 62.5336C75.3055 62.8003 75.8565 62.9336 76.477 62.9336C77.0869 62.9336 77.6593 62.8109 78.1942 62.5656V59.4936Z" fill="white"/>
<path d="M87.0616 57.7016C87.3719 57.3069 87.7731 57.0136 88.2652 56.8216C88.7681 56.6189 89.3405 56.5176 89.9824 56.5176V59.2536C89.7043 59.2216 89.4742 59.2056 89.2924 59.2056C88.6397 59.2056 88.1262 59.3816 87.7517 59.7336C87.3879 60.0856 87.206 60.6243 87.206 61.3496V65.3336H84.1568V56.6616H87.0616V57.7016Z" fill="white"/>
<path d="M96.8115 65.4776C95.8807 65.4776 95.0408 65.2856 94.2919 64.9016C93.5429 64.5176 92.9545 63.9843 92.5265 63.3016C92.1093 62.6189 91.9006 61.8456 91.9006 60.9816C91.9006 60.1283 92.1093 59.3603 92.5265 58.6776C92.9545 57.9949 93.5376 57.4669 94.2758 57.0936C95.0248 56.7096 95.87 56.5176 96.8115 56.5176C97.753 56.5176 98.5983 56.7096 99.3472 57.0936C100.096 57.4669 100.679 57.9949 101.096 58.6776C101.514 59.3496 101.722 60.1176 101.722 60.9816C101.722 61.8456 101.514 62.6189 101.096 63.3016C100.679 63.9843 100.096 64.5176 99.3472 64.9016C98.5983 65.2856 97.753 65.4776 96.8115 65.4776ZM96.8115 63.0616C97.3465 63.0616 97.7851 62.8803 98.1275 62.5176C98.4699 62.1443 98.6411 61.6323 98.6411 60.9816C98.6411 60.3416 98.4699 59.8403 98.1275 59.4776C97.7851 59.1149 97.3465 58.9336 96.8115 58.9336C96.2766 58.9336 95.8379 59.1149 95.4955 59.4776C95.1532 59.8403 94.982 60.3416 94.982 60.9816C94.982 61.6323 95.1532 62.1443 95.4955 62.5176C95.8379 62.8803 96.2766 63.0616 96.8115 63.0616Z" fill="white"/>
<path d="M113.567 56.6616V65.3336H110.662V64.4056C110.341 64.7576 109.956 65.0243 109.506 65.2056C109.057 65.3869 108.581 65.4776 108.078 65.4776C106.954 65.4776 106.056 65.1469 105.382 64.4856C104.718 63.8242 104.387 62.8323 104.387 61.5096V56.6616H107.436V61.0136C107.436 61.6643 107.559 62.1389 107.805 62.4376C108.051 62.7363 108.41 62.8856 108.88 62.8856C109.362 62.8856 109.752 62.7203 110.052 62.3896C110.362 62.0483 110.517 61.5309 110.517 60.8376V56.6616H113.567Z" fill="white"/>
<path d="M122.287 56.5176C123.079 56.5176 123.796 56.7043 124.438 57.0776C125.09 57.4403 125.604 57.9629 125.978 58.6456C126.363 59.3176 126.556 60.1016 126.556 60.9976C126.556 61.8936 126.363 62.6829 125.978 63.3656C125.604 64.0376 125.09 64.5603 124.438 64.9336C123.796 65.2963 123.079 65.4776 122.287 65.4776C121.271 65.4776 120.463 65.1736 119.864 64.5656V68.4376H116.814V56.6616H119.719V57.5256C120.286 56.8536 121.142 56.5176 122.287 56.5176ZM121.645 63.0616C122.18 63.0616 122.619 62.8803 122.961 62.5176C123.303 62.1443 123.475 61.6376 123.475 60.9976C123.475 60.3576 123.303 59.8563 122.961 59.4936C122.619 59.1203 122.18 58.9336 121.645 58.9336C121.11 58.9336 120.672 59.1203 120.329 59.4936C119.987 59.8563 119.816 60.3576 119.816 60.9976C119.816 61.6376 119.987 62.1443 120.329 62.5176C120.672 62.8803 121.11 63.0616 121.645 63.0616Z" fill="white"/>
</svg>
